<svg width="19" height="19" viewBox="0 0 19 19" fill="none" xmlns="http://www.w3.org/2000/svg">
<path d="M17.5867 18.018L15.92 16.3514M8.83666 17.1847C9.8763 17.1847 10.9057 16.9799 11.8662 16.5821C12.8267 16.1842 13.6995 15.6011 14.4346 14.866C15.1697 14.1308 15.7529 13.2581 16.1507 12.2976C16.5486 11.3371 16.7533 10.3077 16.7533 9.26805C16.7533 8.22841 16.5486 7.19896 16.1507 6.23847C15.7529 5.27797 15.1697 4.40525 14.4346 3.67012C13.6995 2.93499 12.8267 2.35185 11.8662 1.954C10.9057 1.55615 9.8763 1.35138 8.83666 1.35138C6.73703 1.35138 4.7234 2.18545 3.23874 3.67012C1.75407 5.15478 0.919998 7.16842 0.919998 9.26805C0.919998 11.3677 1.75407 13.3813 3.23874 14.866C4.7234 16.3506 6.73703 17.1847 8.83666 17.1847V17.1847Z" stroke="white" stroke-linecap="round" stroke-linejoin="round"/>
</svg>
